HIERARCHY
ROOT hip
{
	OFFSET 0.000000 0.000000 0.000000
	CHANNELS 6 Xposition Yposition Zposition Xrotation Yrotation Zrotation
	JOINT mSpine1
	{
		OFFSET 0.0000 3.3100 -0.0000
		CHANNELS 3 Xrotation Yrotation Zrotation
		JOINT mSpine2
		{
			OFFSET 0.0000 -3.3100 0.0000
			CHANNELS 3 Xrotation Yrotation Zrotation
			JOINT abdomen
			{
				OFFSET 0.0000 3.3100 -0.0000
				CHANNELS 3 Xrotation Yrotation Zrotation
				JOINT mSpine3
				{
					OFFSET 0.0000 8.0660 -0.6050
					CHANNELS 3 Xrotation Yrotation Zrotation
					JOINT mSpine4
					{
						OFFSET 0.0000 -8.0660 0.6050
						CHANNELS 3 Xrotation Yrotation Zrotation
						JOINT chest
						{
							OFFSET 0.0000 8.0660 -0.6050
							CHANNELS 3 Xrotation Yrotation Zrotation
							JOINT neck
							{
								OFFSET 0.0000 9.8861 -0.3705
								CHANNELS 3 Xrotation Yrotation Zrotation
								JOINT head
								{
									OFFSET 0.0000 2.9776 -0.0000
									CHANNELS 3 Xrotation Yrotation Zrotation
									JOINT mEyeRight
									{
										OFFSET -1.4203 2.8770 3.5859
										CHANNELS 3 Xrotation Yrotation Zrotation
										End Site
										{
											OFFSET 0.0000 0.0000 0.9843
										}
									}
									JOINT mEyeLeft
									{
										OFFSET 1.4203 2.8770 3.5857
										CHANNELS 3 Xrotation Yrotation Zrotation
										End Site
										{
											OFFSET 0.0000 0.0000 0.9843
										}
									}
									JOINT mFaceRoot
									{
										OFFSET 0.0000 1.6934 0.9104
										CHANNELS 3 Xrotation Yrotation Zrotation
										JOINT mFaceForeheadLeft
										{
											OFFSET 1.3035 3.0608 2.3307
											CHANNELS 3 Xrotation Yrotation Zrotation
											End Site
											{
												OFFSET 0.1575 0.7087 0.9449
											}
										}
										JOINT mFaceForeheadRight
										{
											OFFSET -1.3035 3.0608 2.3307
											CHANNELS 3 Xrotation Yrotation Zrotation
											End Site
											{
												OFFSET -0.1575 0.7087 0.9449
											}
										}
										JOINT mFaceEyebrowOuterLeft
										{
											OFFSET 1.9168 1.7290 2.3307
											CHANNELS 3 Xrotation Yrotation Zrotation
											End Site
											{
												OFFSET 0.5118 0.0000 0.9055
											}
										}
										JOINT mFaceEyebrowCenterLeft
										{
											OFFSET 1.6711 2.1467 2.5492
											CHANNELS 3 Xrotation Yrotation Zrotation
											End Site
											{
												OFFSET 0.0000 0.0000 1.0630
											}
										}
										JOINT mFaceEyebrowInnerLeft
										{
											OFFSET 0.9060 1.8578 2.7313
											CHANNELS 3 Xrotation Yrotation Zrotation
											End Site
											{
												OFFSET 0.0000 0.0000 1.0236
											}
										}
										JOINT mFaceEyebrowOuterRight
										{
											OFFSET -1.9168 1.7290 2.3307
											CHANNELS 3 Xrotation Yrotation Zrotation
											End Site
											{
												OFFSET -0.5118 0.0000 0.9055
											}
										}
										JOINT mFaceEyebrowCenterRight
										{
											OFFSET -1.6711 2.1467 2.5492
											CHANNELS 3 Xrotation Yrotation Zrotation
											End Site
											{
												OFFSET 0.0000 0.0000 1.0630
											}
										}
										JOINT mFaceEyebrowInnerRight
										{
											OFFSET -0.9060 1.8578 2.7313
											CHANNELS 3 Xrotation Yrotation Zrotation
											End Site
											{
												OFFSET 0.0000 0.0000 1.0236
											}
										}
										JOINT mFaceEyeLidUpperLeft
										{
											OFFSET 1.4156 1.1887 2.6585
											CHANNELS 3 Xrotation Yrotation Zrotation
											End Site
											{
												OFFSET 0.0000 0.1969 1.0630
											}
										}
										JOINT mFaceEyeLidLowerLeft
										{
											OFFSET 1.4156 1.1834 2.6585
											CHANNELS 3 Xrotation Yrotation Zrotation
											End Site
											{
												OFFSET 0.0000 -0.2756 0.9449
											}
										}
										JOINT mFaceEyeLidUpperRight
										{
											OFFSET -1.4156 1.1887 2.6585
											CHANNELS 3 Xrotation Yrotation Zrotation
											End Site
											{
												OFFSET 0.0000 0.1969 1.0630
											}
										}
										JOINT mFaceEyeLidLowerRight
										{
											OFFSET -1.4156 1.1834 2.6585
											CHANNELS 3 Xrotation Yrotation Zrotation
											End Site
											{
												OFFSET 0.0000 -0.2756 0.9449
											}
										}
										JOINT mFaceEar1Left
										{
											OFFSET 2.9795 0.0712 -0.0000
											CHANNELS 3 Xrotation Yrotation Zrotation
											JOINT mFaceEar2Left
											{
												OFFSET 0.7087 0.9842 -0.7480
												CHANNELS 3 Xrotation Yrotation Zrotation
												End Site
												{
													OFFSET 0.0000 1.2992 -0.0000
												}
											}
										}
										JOINT mFaceEar1Right
										{
											OFFSET -2.9795 0.0712 -0.0000
											CHANNELS 3 Xrotation Yrotation Zrotation
											JOINT mFaceEar2Right
											{
												OFFSET -0.7087 0.9842 -0.7480
												CHANNELS 3 Xrotation Yrotation Zrotation
												End Site
												{
													OFFSET 0.0000 1.2992 -0.0000
												}
											}
										}
										JOINT mFaceNoseLeft
										{
											OFFSET 0.5587 -0.1957 3.1319
											CHANNELS 3 Xrotation Yrotation Zrotation
											End Site
											{
												OFFSET 0.1575 0.0000 0.5906
											}
										}
										JOINT mFaceNoseCenter
										{
											OFFSET 0.0000 -0.0534 3.7146
											CHANNELS 3 Xrotation Yrotation Zrotation
											End Site
											{
												OFFSET 0.0000 0.0000 0.9843
											}
										}
										JOINT mFaceNoseRight
										{
											OFFSET -0.5587 -0.1957 3.1319
											CHANNELS 3 Xrotation Yrotation Zrotation
											End Site
											{
												OFFSET -0.1575 0.0000 0.5906
											}
										}
										JOINT mFaceCheekLowerLeft
										{
											OFFSET 1.2663 -1.1941 1.8209
											CHANNELS 3 Xrotation Yrotation Zrotation
											End Site
											{
												OFFSET 1.1811 0.0000 0.5118
											}
										}
										JOINT mFaceCheekUpperLeft
										{
											OFFSET 1.2663 -0.2313 2.5492
											CHANNELS 3 Xrotation Yrotation Zrotation
											End Site
											{
												OFFSET 0.5906 0.0000 0.8661
											}
										}
										JOINT mFaceCheekLowerRight
										{
											OFFSET -1.2663 -1.1941 1.8209
											CHANNELS 3 Xrotation Yrotation Zrotation
											End Site
											{
												OFFSET -1.1811 0.0000 0.5118
											}
										}
										JOINT mFaceCheekUpperRight
										{
											OFFSET -1.2663 -0.2313 2.5492
											CHANNELS 3 Xrotation Yrotation Zrotation
											End Site
											{
												OFFSET -0.5906 0.0000 0.8661
											}
										}
										JOINT mFaceJaw
										{
											OFFSET 0.0000 -0.5339 -0.0364
											CHANNELS 3 Xrotation Yrotation Zrotation
											JOINT mFaceChin
											{
												OFFSET 0.0000 -2.0212 2.5310
												CHANNELS 3 Xrotation Yrotation Zrotation
												End Site
												{
													OFFSET 0.0000 -0.7087 0.8268
												}
											}
											JOINT mFaceTeethLower
											{
												OFFSET 0.0000 -1.4869 0.7648
												CHANNELS 3 Xrotation Yrotation Zrotation
												JOINT mFaceLipLowerLeft
												{
													OFFSET 0.0000 0.0000 1.6388
													CHANNELS 3 Xrotation Yrotation Zrotation
													End Site
													{
														OFFSET 0.6693 0.1969 1.3386
													}
												}
												JOINT mFaceLipLowerRight
												{
													OFFSET 0.0000 0.0000 1.6388
													CHANNELS 3 Xrotation Yrotation Zrotation
													End Site
													{
														OFFSET -0.6693 0.1969 1.3386
													}
												}
												JOINT mFaceLipLowerCenter
												{
													OFFSET 0.0000 0.0000 1.6388
													CHANNELS 3 Xrotation Yrotation Zrotation
													End Site
													{
														OFFSET 0.0000 0.0787 1.5748
													}
												}
												JOINT mFaceTongueBase
												{
													OFFSET 0.0000 0.1821 1.4203
													CHANNELS 3 Xrotation Yrotation Zrotation
													JOINT mFaceTongueTip
													{
														OFFSET 0.0000 0.2549 0.8012
														CHANNELS 3 Xrotation Yrotation Zrotation
														End Site
														{
															OFFSET 0.0000 0.0000 0.3937
														}
													}
												}
											}
										}
										JOINT mFaceJawShaper
										{
											OFFSET 0.0000 0.0000 0.0000
											CHANNELS 3 Xrotation Yrotation Zrotation
											End Site
											{
												OFFSET 0.0000 -0.0000 -0.6693
											}
										}
										JOINT mFaceForeheadCenter
										{
											OFFSET 0.0000 2.3027 2.5237
											CHANNELS 3 Xrotation Yrotation Zrotation
											End Site
											{
												OFFSET 0.0000 0.0000 1.4173
											}
										}
										JOINT mFaceNoseBase
										{
											OFFSET 0.0000 -0.7047 3.4232
											CHANNELS 3 Xrotation Yrotation Zrotation
											End Site
											{
												OFFSET 0.0000 0.0000 0.5512
											}
										}
										JOINT mFaceTeethUpper
										{
											OFFSET 0.0000 -1.1478 0.7283
											CHANNELS 3 Xrotation Yrotation Zrotation
											JOINT mFaceLipUpperLeft
											{
												OFFSET 0.0000 -0.1478 1.6388
												CHANNELS 3 Xrotation Yrotation Zrotation
												End Site
												{
													OFFSET 0.5906 0.0000 1.6142
												}
											}
											JOINT mFaceLipUpperRight
											{
												OFFSET 0.0000 -0.1478 1.6388
												CHANNELS 3 Xrotation Yrotation Zrotation
												End Site
												{
													OFFSET -0.5906 0.0000 1.6142
												}
											}
											JOINT mFaceLipCornerLeft
											{
												OFFSET -0.6919 -0.3642 1.0197
												CHANNELS 3 Xrotation Yrotation Zrotation
												End Site
												{
													OFFSET 2.0079 0.0000 1.7717
												}
											}
											JOINT mFaceLipCornerRight
											{
												OFFSET 0.6919 -0.3642 1.0197
												CHANNELS 3 Xrotation Yrotation Zrotation
												End Site
												{
													OFFSET -2.0079 0.0000 1.7717
												}
											}
											JOINT mFaceLipUpperCenter
											{
												OFFSET 0.0000 -0.0964 1.6388
												CHANNELS 3 Xrotation Yrotation Zrotation
												End Site
												{
													OFFSET 0.0000 0.0787 1.6929
												}
											}
										}
										JOINT mFaceEyecornerInnerLeft
										{
											OFFSET 0.7135 1.1122 2.7313
											CHANNELS 3 Xrotation Yrotation Zrotation
											End Site
											{
												OFFSET 0.0000 0.0000 0.6299
											}
										}
										JOINT mFaceEyecornerInnerRight
										{
											OFFSET -0.7135 1.1122 2.7313
											CHANNELS 3 Xrotation Yrotation Zrotation
											End Site
											{
												OFFSET 0.0000 0.0000 0.6299
											}
										}
										JOINT mFaceNoseBridge
										{
											OFFSET 0.0000 0.7118 3.3140
											CHANNELS 3 Xrotation Yrotation Zrotation
											End Site
											{
												OFFSET 0.0000 0.3150 0.5906
											}
										}
									}
								}
							}
							JOINT lCollar
							{
								OFFSET 2.8220 6.5116 -0.8157
								CHANNELS 3 Xrotation Yrotation Zrotation
								JOINT lShldr
								{
									OFFSET 3.1102 0.0000 0.0000
									CHANNELS 3 Xrotation Yrotation Zrotation
									JOINT lForeArm
									{
										OFFSET 10.9354 0.0000 0.0000
										CHANNELS 3 Xrotation Yrotation Zrotation
										JOINT lHand
										{
											OFFSET 9.5165 0.0000 0.0000
											CHANNELS 3 Xrotation Yrotation Zrotation
											JOINT mHandMiddle1Left
											{
												OFFSET 3.9764 0.5905 0.5118
												CHANNELS 3 Xrotation Yrotation Zrotation
												JOINT mHandMiddle2Left
												{
													OFFSET 1.5748 -0.2362 -0.0394
													CHANNELS 3 Xrotation Yrotation Zrotation
													JOINT mHandMiddle3Left
													{
														OFFSET 1.9291 -0.3150 -0.0394
														CHANNELS 3 Xrotation Yrotation Zrotation
														End Site
														{
															OFFSET 1.2992 -0.2362 -0.0787
														}
													}
												}
											}
											JOINT mHandIndex1Left
											{
												OFFSET 3.8189 0.5905 1.4961
												CHANNELS 3 Xrotation Yrotation Zrotation
												JOINT mHandIndex2Left
												{
													OFFSET 1.4173 -0.2362 0.6693
													CHANNELS 3 Xrotation Yrotation Zrotation
													JOINT mHandIndex3Left
													{
														OFFSET 1.2598 -0.2362 0.5512
														CHANNELS 3 Xrotation Yrotation Zrotation
														End Site
														{
															OFFSET 0.9843 -0.1575 0.4331
														}
													}
												}
											}
											JOINT mHandRing1Left
											{
												OFFSET 3.8976 0.3543 -0.3937
												CHANNELS 3 Xrotation Yrotation Zrotation
												JOINT mHandRing2Left
												{
													OFFSET 1.4961 -0.3150 -0.5118
													CHANNELS 3 Xrotation Yrotation Zrotation
													JOINT mHandRing3Left
													{
														OFFSET 1.5748 -0.3543 -0.5118
														CHANNELS 3 Xrotation Yrotation Zrotation
														End Site
														{
															OFFSET 1.1024 -0.2362 -0.3937
														}
													}
												}
											}
											JOINT mHandPinky1Left
											{
												OFFSET 3.7402 0.1181 -1.2205
												CHANNELS 3 Xrotation Yrotation Zrotation
												JOINT mHandPinky2Left
												{
													OFFSET 0.9842 -0.2362 -0.9449
													CHANNELS 3 Xrotation Yrotation Zrotation
													JOINT mHandPinky3Left
													{
														OFFSET 0.7087 -0.1575 -0.5906
														CHANNELS 3 Xrotation Yrotation Zrotation
														End Site
														{
															OFFSET 0.6299 -0.1575 -0.5118
														}
													}
												}
											}
											JOINT mHandThumb1Left
											{
												OFFSET 1.0236 0.1575 1.2205
												CHANNELS 3 Xrotation Yrotation Zrotation
												JOINT mHandThumb2Left
												{
													OFFSET 1.2598 -0.0394 1.1024
													CHANNELS 3 Xrotation Yrotation Zrotation
													JOINT mHandThumb3Left
													{
														OFFSET 1.2205 -0.0394 0.9055
														CHANNELS 3 Xrotation Yrotation Zrotation
														End Site
														{
															OFFSET 0.9843 0.0000 0.5906
														}
													}
												}
											}
										}
									}
								}
							}
							JOINT rCollar
							{
								OFFSET -2.8346 6.5116 -0.8157
								CHANNELS 3 Xrotation Yrotation Zrotation
								JOINT rShldr
								{
									OFFSET -3.1267 0.0000 0.0000
									CHANNELS 3 Xrotation Yrotation Zrotation
									JOINT rForeArm
									{
										OFFSET -10.9354 0.0000 0.0000
										CHANNELS 3 Xrotation Yrotation Zrotation
										JOINT rHand
										{
											OFFSET -9.5236 0.0000 0.0000
											CHANNELS 3 Xrotation Yrotation Zrotation
											JOINT mHandMiddle1Right
											{
												OFFSET -3.9764 0.5905 0.5118
												CHANNELS 3 Xrotation Yrotation Zrotation
												JOINT mHandMiddle2Right
												{
													OFFSET -1.5748 -0.2362 -0.0394
													CHANNELS 3 Xrotation Yrotation Zrotation
													JOINT mHandMiddle3Right
													{
														OFFSET -1.9291 -0.3150 -0.0394
														CHANNELS 3 Xrotation Yrotation Zrotation
														End Site
														{
															OFFSET -1.2992 -0.2362 -0.0787
														}
													}
												}
											}
											JOINT mHandIndex1Right
											{
												OFFSET -3.8189 0.5905 1.4961
												CHANNELS 3 Xrotation Yrotation Zrotation
												JOINT mHandIndex2Right
												{
													OFFSET -1.4173 -0.2362 0.6693
													CHANNELS 3 Xrotation Yrotation Zrotation
													JOINT mHandIndex3Right
													{
														OFFSET -1.2598 -0.2362 0.5512
														CHANNELS 3 Xrotation Yrotation Zrotation
														End Site
														{
															OFFSET -0.9843 -0.1575 0.4331
														}
													}
												}
											}
											JOINT mHandRing1Right
											{
												OFFSET -3.8976 0.3543 -0.3937
												CHANNELS 3 Xrotation Yrotation Zrotation
												JOINT mHandRing2Right
												{
													OFFSET -1.4961 -0.3150 -0.5118
													CHANNELS 3 Xrotation Yrotation Zrotation
													JOINT mHandRing3Right
													{
														OFFSET -1.5748 -0.3543 -0.5118
														CHANNELS 3 Xrotation Yrotation Zrotation
														End Site
														{
															OFFSET -1.1024 -0.2362 -0.3937
														}
													}
												}
											}
											JOINT mHandPinky1Right
											{
												OFFSET -3.7401 0.1181 -1.2205
												CHANNELS 3 Xrotation Yrotation Zrotation
												JOINT mHandPinky2Right
												{
													OFFSET -0.9842 -0.2362 -0.9449
													CHANNELS 3 Xrotation Yrotation Zrotation
													JOINT mHandPinky3Right
													{
														OFFSET -0.7087 -0.1575 -0.5906
														CHANNELS 3 Xrotation Yrotation Zrotation
														End Site
														{
															OFFSET -0.6299 -0.1575 -0.5118
														}
													}
												}
											}
											JOINT mHandThumb1Right
											{
												OFFSET -1.0236 0.1575 1.2205
												CHANNELS 3 Xrotation Yrotation Zrotation
												JOINT mHandThumb2Right
												{
													OFFSET -1.2598 -0.0394 1.1024
													CHANNELS 3 Xrotation Yrotation Zrotation
													JOINT mHandThumb3Right
													{
														OFFSET -1.2205 -0.0394 0.9055
														CHANNELS 3 Xrotation Yrotation Zrotation
														End Site
														{
															OFFSET -0.9843 0.0000 0.5906
														}
													}
												}
											}
										}
									}
								}
							}
						}
					}
				}
			}
		}
	}
	JOINT rThigh
	{
		OFFSET -5.0711 -1.6176 1.3236
		CHANNELS 3 Xrotation Yrotation Zrotation
		JOINT rShin
		{
			OFFSET 1.9148 -19.3276 -0.0307
			CHANNELS 3 Xrotation Yrotation Zrotation
			JOINT rFoot
			{
				OFFSET 0.0000 -18.4446 -1.1366
				CHANNELS 3 Xrotation Yrotation Zrotation
				End Site
				{
					OFFSET 0.0000 -2.3873 4.4077
				}
			}
		}
	}
	JOINT lThigh
	{
		OFFSET 4.9907 -1.6141 1.3290
		CHANNELS 3 Xrotation Yrotation Zrotation
		JOINT lShin
		{
			OFFSET -1.7940 -19.3328 -0.0349
			CHANNELS 3 Xrotation Yrotation Zrotation
			JOINT lFoot
			{
				OFFSET 0.0543 -18.4428 -1.1373
				CHANNELS 3 Xrotation Yrotation Zrotation
				End Site
				{
					OFFSET 0.0000 -2.3866 4.4077
				}
			}
		}
	}
}
MOTION
Frames: 3
Frame Time: 0.041667
0.0000 42.0084 0.0000 0.0000 0.0000 1.0000 0.0000 0.0000 0.0000 0.0000 0.0000 0.0000 0.0000 0.0000 1.0000 0.0000 0.0000 0.0000 0.0000 0.0000 0.0000 0.0000 0.0000 1.0000 0.0000 0.0000 1.0000 0.0000 0.0000 1.0000 0.0000 0.0000 0.0000 0.0000 0.0000 0.0000 0.0000 0.0000 1.0000 0.0000 0.0000 1.0000 0.0000 0.0000 1.0000 0.0000 0.0000 1.0000 0.0000 0.0000 1.0000 0.0000 0.0000 1.0000 0.0000 0.0000 1.0000 0.0000 0.0000 1.0000 0.0000 0.0000 1.0000 0.0000 0.0000 1.0000 0.0000 0.0000 1.0000 0.0000 0.0000 1.0000 0.0000 0.0000 1.0000 0.0000 0.0000 1.0000 0.0000 0.0000 1.0000 0.0000 0.0000 1.0000 0.0000 0.0000 1.0000 0.0000 0.0000 1.0000 0.0000 0.0000 1.0000 0.0000 0.0000 1.0000 0.0000 0.0000 1.0000 0.0000 0.0000 1.0000 0.0000 0.0000 1.0000 0.0000 0.0000 1.0000 0.0000 0.0000 1.0000 0.0000 0.0000 1.0000 0.0000 0.0000 1.0000 0.0000 0.0000 1.0000 0.0000 0.0000 1.0000 0.0000 0.0000 1.0000 0.0000 0.0000 1.0000 0.0000 0.0000 1.0000 0.0000 0.0000 1.0000 0.0000 0.0000 1.0000 0.0000 0.0000 1.0000 0.0000 0.0000 1.0000 0.0000 0.0000 1.0000 0.0000 0.0000 1.0000 0.0000 0.0000 1.0000 0.0000 0.0000 1.0000 0.0000 0.0000 1.0000 0.0000 0.0000 1.0000 0.0000 0.0000 1.0000 0.0000 0.0000 1.0000 0.0000 0.0000 1.0000 0.0000 0.0000 0.0000 0.0000 0.0000 0.0000 0.0000 0.0000 0.0000 0.0000 0.0000 1.0000 0.0000 0.0000 1.0000 0.0000 0.0000 1.0000 0.0000 0.0000 1.0000 0.0000 0.0000 1.0000 0.0000 0.0000 1.0000 0.0000 0.0000 1.0000 0.0000 0.0000 1.0000 0.0000 0.0000 1.0000 0.0000 0.0000 1.0000 0.0000 0.0000 1.0000 0.0000 0.0000 1.0000 0.0000 0.0000 1.0000 0.0000 0.0000 1.0000 0.0000 0.0000 1.0000 0.0000 0.0000 1.0000 0.0000 0.0000 0.0000 0.0000 0.0000 0.0000 0.0000 0.0000 0.0000 0.0000 0.0000 1.0000 0.0000 0.0000 1.0000 0.0000 0.0000 1.0000 0.0000 0.0000 1.0000 0.0000 0.0000 1.0000 0.0000 0.0000 1.0000 0.0000 0.0000 1.0000 0.0000 0.0000 1.0000 0.0000 0.0000 1.0000 0.0000 0.0000 1.0000 0.0000 0.0000 1.0000 0.0000 0.0000 1.0000 0.0000 0.0000 1.0000 0.0000 0.0000 1.0000 0.0000 0.0000 1.0000 0.0000 0.0000 0.0000 0.0000 0.0000 0.0000 0.0000 0.0000 0.0000 0.0000 0.0000 0.0000 0.0000 0.0000 0.0000 0.0000 0.0000 0.0000 
0.0000 42.0084 0.0000 0.0000 0.0000 0.0000 0.0000 0.0000 0.0000 0.0000 0.0000 0.0000 0.0000 0.0000 0.0000 0.0000 0.0000 0.0000 0.0000 0.0000 0.0000 0.0000 0.0000 0.0000 0.0000 0.0000 0.0000 0.0000 0.0000 0.0000 0.0000 1.4321 0.0000 0.0000 -1.4321 0.0000 0.0000 0.0000 0.0000 0.0000 0.0000 0.0000 0.0000 0.0000 0.0000 0.0000 0.0000 0.0000 0.0000 0.0000 0.0000 0.0000 0.0000 0.0000 0.0000 0.0000 0.0000 0.0000 0.0000 0.0000 0.0000 0.0000 0.0000 0.0000 0.0000 0.0000 0.0000 0.0000 0.0000 0.0000 0.0000 0.0000 0.0000 0.0000 0.0000 0.0000 0.0000 0.0000 0.0000 0.0000 0.0000 0.0000 0.0000 0.0000 0.0000 0.0000 0.0000 0.0000 0.0000 0.0000 0.0000 0.0000 0.0000 0.0000 0.0000 0.0000 0.0000 0.0000 0.0000 0.0000 0.0000 0.0000 0.0000 0.0000 0.0000 0.0000 0.0000 0.0000 0.0000 0.0000 0.0000 0.0000 0.0000 0.0000 0.0000 0.0000 0.0000 0.0000 0.0000 0.0000 0.0000 0.0000 0.0000 0.0000 0.0000 0.0000 0.0000 0.0000 0.0000 0.0000 0.0000 0.0000 0.0000 0.0000 0.0000 0.0000 0.0000 0.0000 0.0000 0.0000 0.0000 0.0000 0.0000 0.0000 0.0000 0.0000 0.0000 0.0000 0.0000 0.0000 0.0000 0.0000 0.0000 0.0000 0.0000 0.0000 0.0000 0.0000 0.0000 0.0000 0.0000 0.0000 0.0000 0.0000 0.0000 0.0000 0.0000 0.0000 0.0000 0.0000 0.0000 19.5425 -13.0090 -75.6962 0.0000 -52.7686 0.0000 -27.9302 29.8057 5.9189 0.0000 0.0000 0.0000 0.0000 0.0000 0.0000 0.0000 0.0000 0.0000 0.0000 0.0000 0.0000 0.0000 0.0000 0.0000 0.0000 0.0000 0.0000 0.0000 0.0000 0.0000 0.0000 0.0000 0.0000 0.0000 0.0000 0.0000 0.0000 0.0000 0.0000 0.0000 0.0000 0.0000 0.0000 0.0000 0.0000 0.0000 0.0000 0.0000 0.0000 0.0000 0.0000 0.0000 0.0000 0.0000 0.0000 0.0000 0.0000 19.5935 13.0078 75.6564 0.0000 52.8367 0.0000 -27.9607 -29.8269 -5.9213 0.0000 0.0000 0.0000 0.0000 0.0000 0.0000 0.0000 0.0000 0.0000 0.0000 0.0000 0.0000 0.0000 0.0000 0.0000 0.0000 0.0000 0.0000 0.0000 0.0000 0.0000 0.0000 0.0000 0.0000 0.0000 0.0000 0.0000 0.0000 0.0000 0.0000 0.0000 0.0000 0.0000 0.0000 0.0000 0.0000 0.0000 0.0000 0.0000 0.0000 0.0000 0.0000 0.0000 0.0000 0.0000 -1.0587 18.3351 0.7427 0.0021 0.0000 0.0000 0.8669 -18.3446 -0.4315 -0.9693 -18.3294 -0.7302 -0.0004 0.0000 0.0000 0.7795 18.3380 0.4480 
0.0000 41.8784 0.0000 0.0000 0.0000 0.0000 0.0000 0.0000 0.0000 0.0000 0.0000 0.0000 0.0000 0.0000 0.0000 0.0000 0.0000 0.0000 0.0000 0.0000 0.0000 0.0000 0.0000 0.0000 0.0000 0.0000 0.0000 0.0000 0.0000 0.0000 0.0000 1.4321 0.0000 0.0000 -1.4321 0.0000 0.0000 0.0000 0.0000 0.0000 0.0000 0.0000 0.0000 0.0000 0.0000 0.0000 0.0000 0.0000 0.0000 0.0000 0.0000 0.0000 0.0000 0.0000 0.0000 0.0000 0.0000 0.0000 0.0000 0.0000 0.0000 0.0000 0.0000 0.0000 0.0000 0.0000 0.0000 0.0000 0.0000 0.0000 0.0000 0.0000 0.0000 0.0000 0.0000 0.0000 0.0000 0.0000 0.0000 0.0000 0.0000 0.0000 0.0000 0.0000 0.0000 0.0000 0.0000 0.0000 0.0000 0.0000 0.0000 0.0000 0.0000 0.0000 0.0000 0.0000 0.0000 0.0000 0.0000 0.0000 0.0000 0.0000 0.0000 0.0000 0.0000 0.0000 0.0000 0.0000 0.0000 0.0000 0.0000 0.0000 0.0000 0.0000 0.0000 0.0000 0.0000 0.0000 0.0000 0.0000 0.0000 0.0000 0.0000 0.0000 0.0000 0.0000 0.0000 0.0000 0.0000 0.0000 0.0000 0.0000 0.0000 0.0000 0.0000 0.0000 0.0000 0.0000 0.0000 0.0000 0.0000 0.0000 0.0000 0.0000 0.0000 0.0000 0.0000 0.0000 0.0000 0.0000 0.0000 0.0000 0.0000 0.0000 0.0000 0.0000 0.0000 0.0000 0.0000 0.0000 0.0000 0.0000 0.0000 0.0000 0.0000 0.0000 0.0000 0.0000 0.0000 0.0000 0.0000 19.4866 -13.0705 -75.5655 0.0000 -52.8532 0.0000 -28.0881 29.9638 5.9508 0.0000 0.0000 0.0000 0.0000 0.0000 0.0000 0.0000 0.0000 0.0000 0.0000 0.0000 0.0000 0.0000 0.0000 0.0000 0.0000 0.0000 0.0000 0.0000 0.0000 0.0000 0.0000 0.0000 0.0000 0.0000 0.0000 0.0000 0.0000 0.0000 0.0000 0.0000 0.0000 0.0000 0.0000 0.0000 0.0000 0.0000 0.0000 0.0000 0.0000 0.0000 0.0000 0.0000 0.0000 0.0000 0.0000 0.0000 0.0000 19.5915 13.0496 75.5323 0.0000 52.9403 0.0000 -28.0935 -29.9495 -5.9399 0.0000 0.0000 0.0000 0.0000 0.0000 0.0000 0.0000 0.0000 0.0000 0.0000 0.0000 0.0000 0.0000 0.0000 0.0000 0.0000 0.0000 0.0000 0.0000 0.0000 0.0000 0.0000 0.0000 0.0000 0.0000 0.0000 0.0000 0.0000 0.0000 0.0000 0.0000 0.0000 0.0000 0.0000 0.0000 0.0000 0.0000 0.0000 0.0000 0.0000 0.0000 0.0000 0.0000 0.0000 0.0000 -4.7846 17.7654 1.7900 6.8315 0.0000 0.0000 -2.3805 -17.8491 -0.3424 -4.2069 -17.9058 -1.7625 6.5778 0.0192 0.0182 -2.7199 17.9646 0.4696 
